<svg xmlns="http://www.w3.org/2000/svg" width="1200.982" height="685.505" viewBox="0 0 1200.982 685.505"><g transform="translate(0 0)"><path d="M900.193,107.249H659.577a51.15,51.15,0,0,0-49.9,39.9L488.1,686.416A41.34,41.34,0,0,0,526.395,736.8l247.354,12.188a54.615,54.615,0,0,0,56.43-44.827l68.967-381.268,5.131,1.466,13.2-72.265-5.281-1.32,19.251-106.426a31.493,31.493,0,0,0-31.25-37.1Z" transform="translate(0.491 -107.247)" fill="#3f3d56"/><path d="M691.254,118.874H663.167a35.349,35.349,0,0,0-34.536,27.813l-116.7,534.867A21.9,21.9,0,0,0,531.9,708.08l246.554,16.159a28.367,28.367,0,0,0,29.773-23.278l99.58-552.838a24.846,24.846,0,0,0-24.452-29.25H856.709a11.726,11.726,0,0,0-11.323,8.677h0a10.352,10.352,0,0,1-10,7.661H708.9a17.7,17.7,0,0,1-17.643-16.338Z" transform="translate(0.491 -107.247)" fill="#6c63ff"/><path d="M1047.63,582.907c-38.475,60.8-26.665,137.293-26.665,137.293s74.19-22.072,112.665-82.867S1160.3,500.04,1160.3,500.04,1086.11,522.112,1047.63,582.907Z" transform="translate(0.491 -107.247)" fill="#d0cde1"/><path d="M1077.3,593.16c-2.128,71.916-54.718,128.71-54.718,128.71s-49.141-59.8-47.013-131.72,54.711-128.71,54.711-128.71S1079.42,521.244,1077.3,593.16Z" transform="translate(0.491 -107.247)" fill="#6c63ff"/><ellipse cx="22" cy="14.975" rx="22" ry="14.975" transform="translate(93.953 365.258)" fill="#6c63ff"/><path d="M115.461,487.481S219.96,669.048,217.21,695.253" transform="translate(0.491 -107.247)" fill="#6c63ff"/><path d="M184.21,500.006V606.219c-21.889-30.33-65.549-61.561-147.365-86.913L184.21,721.722v1.538s.278-.15.8-.443l.251.345s.21-.281.587-.825C203.014,712.391,347.009,622.719,184.21,500.006Z" transform="translate(0.491 -107.247)" fill="#3f3d56"/><ellipse cx="22" cy="14.975" rx="22" ry="14.975" transform="translate(895.953 365.258)" fill="#6c63ff"/><path d="M917.461,487.481s104.5,181.567,101.749,207.773" transform="translate(0.491 -107.247)" fill="#6c63ff"/><path d="M986.21,500.006V606.219c-21.889-30.33-65.549-61.561-147.364-86.913L986.21,721.722v1.538s.278-.15.8-.443l.251.345s.21-.281.586-.825C1005.01,712.391,1149.01,622.719,986.21,500.006Z" transform="translate(0.491 -107.247)" fill="#3f3d56"/><path d="M44.941,692.259C56.491,713.679,81,722.874,81,722.874s5.787-25.533-5.763-46.953-36.063-30.615-36.063-30.615S33.391,670.839,44.941,692.259Z" transform="translate(0.491 -107.247)" fill="#d0cde1"/><path d="M52.88,685.212c20.852,12.545,28.883,37.464,28.883,37.464s-25.778,4.579-46.63-7.967S6.25,677.245,6.25,677.245,32.028,672.666,52.88,685.212Z" transform="translate(0.491 -107.247)" fill="#6c63ff"/><path d="M734.941,692.259C746.491,713.679,771,722.874,771,722.874s5.787-25.533-5.763-46.953-36.063-30.615-36.063-30.615S723.391,670.839,734.941,692.259Z" transform="translate(0.491 -107.247)" fill="#3f3d56"/><path d="M742.88,685.212c20.852,12.545,28.883,37.464,28.883,37.464s-25.778,4.579-46.63-7.967-28.883-37.464-28.883-37.464S722.027,672.666,742.88,685.212Z" transform="translate(0.491 -107.247)" fill="#3f3d56"/><path d="M452.941,676.259C464.491,697.679,489,706.874,489,706.874s5.787-25.533-5.763-46.953-36.063-30.615-36.063-30.615S441.391,654.839,452.941,676.259Z" transform="translate(0.491 -107.247)" fill="#3f3d56"/><path d="M460.88,669.212c20.852,12.545,28.883,37.464,28.883,37.464s-25.777,4.579-46.63-7.967-28.884-37.464-28.884-37.464S440.027,656.666,460.88,669.212Z" transform="translate(0.491 -107.247)" fill="#6c63ff"/><path d="M327.941,676.259C339.491,697.679,364,706.874,364,706.874s5.787-25.533-5.763-46.953-36.063-30.615-36.063-30.615S316.391,654.839,327.941,676.259Z" transform="translate(0.491 -107.247)" fill="#d0cde1"/><path d="M335.88,669.212c20.852,12.545,28.883,37.464,28.883,37.464s-25.777,4.579-46.63-7.967-28.884-37.464-28.884-37.464S315.027,656.666,335.88,669.212Z" transform="translate(0.491 -107.247)" fill="#6c63ff"/><path d="M1154.94,692.259c-11.55,21.42-36.063,30.615-36.063,30.615s-5.787-25.533,5.763-46.953,36.063-30.615,36.063-30.615S1166.49,670.839,1154.94,692.259Z" transform="translate(0.491 -107.247)" fill="#3f3d56"/><path d="M1147,685.212c-20.852,12.545-28.883,37.464-28.883,37.464s25.777,4.579,46.63-7.967,28.883-37.464,28.883-37.464S1167.85,672.666,1147,685.212Z" transform="translate(0.491 -107.247)" fill="#6c63ff"/><path d="M1200.49,738.477s-28.763-8.523-85.974-16.715l1.03-17.5c8.611-98.572-58.873-245.421-58.873-245.421a658.938,658.938,0,0,1,38.086,227.671c-8.949-15.17-26.075-31.441-58.723-41.151,0,0,42.751,35.741,55.335,73.321-43.14-5.333-99.031-10.011-167.568-11.382l14.126-33.632-27.544,28.243S897.851,618.37,873.2,615.4l19.077,81.814s-21.536-16.141-26.439-14.438L878.279,706.9q-11.475.025-23.356.177c5.9-98.45-59.248-240.236-59.248-240.236a658.934,658.934,0,0,1,38.086,227.671c-8.949-15.17-26.075-31.441-58.723-41.151,0,0,29.394,24.575,46.61,54.4-43.29,1.2-90.268,3.722-140.911,7.985q-8.819-.258-17.931-.442l6.61-15.74,2.557-4.958a2.25,2.25,0,0,0-.436-.093l5.393-12.841-17.517,17.962c-3.936,2.386-7.885,5.1-10.56,7-.285-1.684-.685-3.953-1.2-6.671l16.96-72.736c-10.926,1.318-19.47,18.461-25.6,37.142-6.195-20.1-15.147-39.56-26.815-40.967l17.773,76.221c-.289,1.437-.553,2.8-.793,4.058-5.462-3.937-20-14.016-24.178-12.939l-5.12-5.25,12.359,29.427q-8.892.04-18.015.154l-3.027-.336,8.922-21.245-19.593,20.091q-4.785-.509-9.534-1c-4.077-21.765-16.014-75-35.6-77.358l17.62,75.565q-4.373-.422-8.709-.826c-6.292-4.093-13.654-8.273-16.272-7.363l3.182,6.169c-78.453-6.951-148.3-9.738-209.488-9.871l12.442-24.123c-4.9-1.7-26.438,14.438-26.438,14.438L326.8,607.4c-15.331,1.849-25.974,34.851-31.832,59.547-5.507-12.8-12.372-22.732-20.582-23.722l10.747,46.093L262.07,665.664,276.194,699.3c-68.537,1.371-124.428,6.049-167.568,11.382,12.585-37.58,55.335-73.321,55.335-73.321-32.648,9.71-49.774,25.982-58.723,41.151a658.935,658.935,0,0,1,38.086-227.671S75.841,597.687,84.452,696.259l1.03,17.5C28.271,721.954-.491,730.477-.491,730.477l279.579,3.5,2.476,4.8q-55.159,7.32-114.891,17.382l772.819-9.687s-6.033-1.785-18.03-4.5Z" transform="translate(0.491 -107.247)" fill="#3f3d56"/><path d="M220.742,792.753s184-27,298,0" transform="translate(0.491 -107.247)" fill="#3f3d56"/><path d="M924.742,769.68s108.98-27.639,176.5,0" transform="translate(0.491 -107.247)" fill="#3f3d56"/><path d="M757.448,622.69q-.715,0-1.432-.046l-17.053-1.12-167.11-10.949a17.386,17.386,0,0,1-15.822-21.021L643.2,190.033a27.55,27.55,0,0,1,26.767-21.557H834.441A19.561,19.561,0,0,1,853.685,191.5L779.3,604.435a22.25,22.25,0,0,1-4.815,10.3l-.207.5h-.216a22.28,22.28,0,0,1-6.457,5.01l-.121.057A22.235,22.235,0,0,1,757.448,622.69ZM669.97,170.477a25.538,25.538,0,0,0-24.812,19.983l-87.17,399.52a15.343,15.343,0,0,0,14,18.6l184.155,12.069a20.181,20.181,0,0,0,10.423-2.124l.114-.053a20.259,20.259,0,0,0,5.843-4.513l.325-.381a20.239,20.239,0,0,0,4.487-9.5L851.716,191.15l.984.177-.984-.177a17.562,17.562,0,0,0-17.275-20.673Z" transform="translate(0.491 -107.247)" fill="#3f3d56"/><path d="M579.03,575.944s-31.382,36.6-24.786,38.987,37.391-23.761,35.411-33.006Z" transform="translate(0.491 -107.247)" fill="#ffb9b9"/><path d="M763.738,609.861s17.037,45.1,10.022,45.1-27.06-35.077-22.049-43.095Z" transform="translate(0.491 -107.247)" fill="#ffb9b9"/><path d="M774.339,336.879c-2.813-3.978-6.273-7.455-9.242-11.318-6.844-8.907-9.212-20.776-18.4-27.607-9.088-6.759-23.51-13.411-34.883-12.878-14.988.7-26.878,12.33-37.211,23.211l-23.688,24.944c-5.712,6.015-11.635,12.4-13.694,20.437-1.979,7.723-.048,16.02,3.575,23.122a56.276,56.276,0,0,0,15.477,18.476c7.929-10.918,19.038-25.994,19.038-25.994l2.586,37.5c13.434,4.452,27.864,5.327,42.021,4.343l4.193-15.375,4.4,14.523c16.917-2.243,33.913-8.084,44.386-21.286C784.479,374.381,785.094,352.091,774.339,336.879Z" transform="translate(0.491 -107.247)" fill="#2f2e41"/><circle cx="31.068" cy="31.068" r="31.068" transform="translate(679.043 200.95)" fill="#ffb9b9"/><path d="M689.575,354.3s2,24.053-11.024,26.057-27.06,0-27.06,8.018,10.022,81.179,10.022,81.179l25.055-2,35.077-34.075,19.042-37.082s-23.051-10.022-13.029-40.088Z" transform="translate(0.491 -107.247)" fill="#ffb9b9"/><path d="M674.542,455.521l-10.022-27.06,2-37.082s22.005-3.007,21.526-21.046l-16.515,7.016-38.084,6.013v35.077s-13.028,21.047,2,42.093l7.015,44.1,72.159-5.011,23.051-30.066,29.064-57.126-30.066-22.048,4.009-6.013-15.336-10,2.307,19.021-7.015,12.026S688.573,411.424,674.542,455.521Z" transform="translate(0.491 -107.247)" fill="#fff"/><path d="M639.465,385.367l-6.013-2s-12.026,5.011-12.026,21.046-48.106,174.384-48.106,174.384l22.049,6.013,30.066-73.161,18.04-61.135Z" transform="translate(0.491 -107.247)" fill="#fff"/><path d="M758.727,412.426h8.018s5.011-4.009,4.009,25.055,3.007,182.4,3.007,182.4l-29.064-2-7.015-165.364Z" transform="translate(0.491 -107.247)" fill="#fff"/><path d="M739.03,620.527l-54.77-3.59-13.31-.87-30.31-1.99c-.46-1.63-.86-3.04-1.18-4.22-10.02-37.08,1.01-89.19,1.01-89.19s-2.01-5.01,0-8.02,1-2-3.01-6.01,0,0,2-5.01,0,0,0-4.01a8.815,8.815,0,0,0-2-6.02,13.367,13.367,0,0,1,2.68-1.64c19.07-9.14,80.28,2.11,80.28,2.11s-.04.05-.11.15c-.48.7-2.3,3.76.33,6.4,3.01,3.01-2,3.01-3,6.01s0,0,1,3.01-2.01,7.01-2.01,7.01C742.43,536.327,743.79,581.657,739.03,620.527Z" transform="translate(0.491 -107.247)" fill="#2f2e41"/><path d="M684.26,616.937l-13.31-.87c2.26-10.27,3.59-16.23,3.59-16.23Z" transform="translate(0.491 -107.247)" fill="#2f2e41"/><path d="M676.045,316.716s25.055,30.066,75.165,13.029L737.18,304.69l-33.073-10.023Z" transform="translate(0.491 -107.247)" fill="#2f2e41"/><path d="M444.476,758.893s14.159,11.923,21.611,11.178,21.611-.745,15.65,7.452-30.554,12.669-40.987,13.414-33.535,1.49-32.044-2.981,2.981-25.337,8.943-26.828S444.476,758.893,444.476,758.893Z" transform="translate(0.491 -107.247)" fill="#575a89"/><path d="M363.211,747.186s10.434,15.29,17.812,16.575,21.016,5.09,13.071,11.384-32.834,3.991-43.084,1.9-32.7-7.577-30.064-11.483,9.681-23.6,15.824-23.437S363.211,747.186,363.211,747.186Z" transform="translate(0.491 -107.247)" fill="#575a89"/><path d="M452.771,528.517s9.591,65.684,7.355,77.607-3.726,30.554-3.726,30.554,1.49,15.649,0,23.1-10.433,78.247-10.433,79.738,1.49,5.962,0,9.688-4.471.745,0,6.707,1.49,7.452.745,7.452-29.809,2.981-31.3,0,.745-3.726,0-7.452-1.49-4.471-2.981-5.216-4.471.745-2.236-2.981,7.452-8.2,5.962-10.433.745-18.63.745-18.63,1.49-36.516,2.236-58.872-6.707-45.458-6.707-45.458a85.263,85.263,0,0,1-19.375,49.929c-19.376,23.1-29.063,66.324-29.063,66.324s-4.471,6.707-2.236,12.669,8.943,2.236,2.236,5.962-29.809-1.49-32.044-3.726,2.981-5.216,1.49-11.178-7.452-4.471-2.236-7.452,6.707-2.236,6.707-5.216,13.414-67.814,34.28-86.445l1.49-67.814s-18.63-47.694.745-52.165S452.771,528.517,452.771,528.517Z" transform="translate(0.491 -107.247)" fill="#2f2e41"/><path d="M439.26,352.006s-12.669,31.3-9.688,35.77-36.516-14.9-36.516-14.9,12.669-31.3,12.669-35.025S439.26,352.006,439.26,352.006Z" transform="translate(0.491 -107.247)" fill="#ffb9b9"/><circle cx="27.573" cy="27.573" r="27.573" transform="translate(402.863 197.438)" fill="#ffb9b9"/><path d="M393.057,360.2s19.375-2.236,29.063,9.688S433.3,384.8,433.3,384.8s23.1,37.261,18.63,55.891a53.9,53.9,0,0,0-2.981,5.216c-1.49,2.981-1.49,44.713,0,51.42s2.981,8.943,1.49,18.63,11.923,25.337-3.726,28.318-27.573.745-32.789-5.962-.745-11.178-17.14-11.178-26.828-11.178-26.828-11.178,8.2-8.943,5.216-10.433,0-5.216,1.49-8.943,1.49-6.707-.745-6.707-.745-1.49.745-5.216-26.082-67.814-9.688-86.445,24.592-29.063,24.592-29.063S388.585,357.968,393.057,360.2Z" transform="translate(0.491 -107.247)" fill="#2f2e41"/><path d="M435.534,431v32.789l23.847,78.993s15.65,40.987,0,40.987-14.811-39.12-14.811-39.12L410.942,485.4s-13.414-46.948-11.923-50.674S435.534,431,435.534,431Z" transform="translate(0.491 -107.247)" fill="#ffb9b9"/><path d="M422.865,382.56s22.356,8.943,16.395,32.789,0,23.1,0,23.1-30.554-2.981-40.242,3.726l-2.236-8.943S387.84,381.815,422.865,382.56Z" transform="translate(0.491 -107.247)" fill="#2f2e41"/><path d="M439.36,311.559a11,11,0,0,0,10.334-1.608c2.809-2.314,4-6.585,2.348-9.828-1.427-2.8-4.479-4.337-7.406-5.482a68.83,68.83,0,0,0-20.171-4.555c-3.3-.234-6.759-.2-9.7,1.309-1.456.745-2.72,1.821-4.162,2.592-2.651,1.419-5.735,1.735-8.6,2.648a21.526,21.526,0,0,0-13.155,12.092,25.939,25.939,0,0,0-1.62,6,33.435,33.435,0,0,0,1.739,16.738c3.177,8.458,9.839,15.852,10.215,24.879,4.078-2.959,5.59-8.3,8.858-12.133a16.5,16.5,0,0,1,9.419-5.463,5.246,5.246,0,0,0,2.808-1.024,4.52,4.52,0,0,0,1.025-2.392l2.79-13.174c.568-2.681,1.285-5.6,3.489-7.234a10.559,10.559,0,0,1,4.548-1.6,71.339,71.339,0,0,1,11.65-1.062" transform="translate(0.491 -107.247)" fill="#2f2e41"/></g></svg>