<svg xmlns="http://www.w3.org/2000/svg" width="1016.047" height="587.855" viewBox="0 0 1016.047 587.855"><path d="M611.422,708.093l-1.267-.475c-.278-.1-27.992-10.723-40.975-34.8s-6.626-53.067-6.56-53.356l.3-1.32,1.267.475c.278.1,27.992,10.723,40.975,34.8s6.626,53.067,6.56,53.356Zm-40.163-36.4c10.976,20.357,32.877,30.792,38.426,33.174,1.055-5.947,4.364-30-6.6-50.334s-32.874-30.786-38.426-33.174C563.6,627.315,560.293,651.362,571.259,671.7Z" transform="translate(-91.976 -156.072)" fill="#3f3d56"/><path d="M579.1,664.373c23.331,14.037,32.317,41.918,32.317,41.918s-28.842,5.123-52.173-8.914-32.317-41.918-32.317-41.918S555.77,650.336,579.1,664.373Z" transform="translate(-91.976 -156.072)" fill="#d0cde1"/><path d="M1023.23,706.773c-.066-.289-6.423-29.279,6.56-53.356s40.7-34.695,40.975-34.8l1.267-.475.3,1.32c.066.289,6.423,29.279-6.56,53.356s-40.7,34.695-40.975,34.8l-1.267.475Zm47.065-85.409c-5.551,2.388-27.46,12.839-38.426,33.174s-7.658,44.387-6.6,50.334c5.549-2.382,27.449-12.817,38.426-33.174,10.968-20.336,7.658-44.384,6.608-50.334Z" transform="translate(-91.976 -156.072)" fill="#3f3d56"/><path d="M1055.85,664.373c-23.331,14.037-32.317,41.918-32.317,41.918s28.842,5.123,52.173-8.914,32.317-41.918,32.317-41.918S1079.18,650.336,1055.85,664.373Z" transform="translate(-91.976 -156.072)" fill="#6c63ff"/><rect width="556.108" height="2.361" transform="translate(424.493 549.514)" fill="#3f3d56"/><rect width="598" height="321" fill="#3f3d56"/><rect width="545" height="13" transform="translate(30 286)" fill="#d0cde1"/><rect width="314" height="13" transform="translate(30 286)" fill="#6c63ff"/><path d="M30,276.445l-.026-18.008,20.386,8.975Z" fill="#6c63ff"/><rect width="7" height="18" transform="translate(62 258)" fill="#6c63ff"/><rect width="7" height="18" transform="translate(76 258)" fill="#6c63ff"/><path d="M656.976,406.072h-532v-221h532Zm-530-2h528v-217h-528Z" transform="translate(-91.976 -156.072)" fill="#d0cde1"/><circle cx="47" cy="47" r="47" transform="translate(253 94)" fill="#6c63ff"/><rect width="60" height="2" transform="translate(357.024 106.168)" fill="#d0cde1"/><rect width="60" height="2" transform="translate(178.024 185.168)" fill="#d0cde1"/><path d="M531,272.24a9,9,0,1,1,9-9A9,9,0,0,1,531,272.24Zm0-16a7,7,0,1,0,7,7A7,7,0,0,0,531,256.24Z" transform="translate(-91.976 -156.072)" fill="#d0cde1"/><path d="M531,361.24a9,9,0,1,1,9-9A9,9,0,0,1,531,361.24Zm0-16a7,7,0,1,0,7,7A7,7,0,0,0,531,345.24Z" transform="translate(-91.976 -156.072)" fill="#d0cde1"/><path d="M563,361.24a9,9,0,1,1,9-9A9,9,0,0,1,563,361.24Zm0-16a7,7,0,1,0,7,7A7,7,0,0,0,563,345.24Z" transform="translate(-91.976 -156.072)" fill="#d0cde1"/><path d="M499,361.24a9,9,0,1,1,9-9,9,9,0,0,1-9,9Zm0-16a7,7,0,1,0,7,7,7,7,0,0,0-7-7Z" transform="translate(-91.976 -156.072)" fill="#d0cde1"/><path d="M245,351.24a9,9,0,1,1,9-9,9,9,0,0,1-9,9Zm0-16a7,7,0,1,0,7,7h0a7.008,7.008,0,0,0-7-7Z" transform="translate(-91.976 -156.072)" fill="#d0cde1"/><path d="M213,351.24a9,9,0,1,1,9-9A9,9,0,0,1,213,351.24Zm0-16a7,7,0,1,0,7,7h0a7.008,7.008,0,0,0-7-7Z" transform="translate(-91.976 -156.072)" fill="#d0cde1"/><rect width="2" height="50" transform="translate(438.024 124.168)" fill="#d0cde1"/><path d="M854.013,291.331s-16.544-2.363-24.816,28.361-10.635,33.088-10.635,33.088,48.45,7.09,49.632,4.727S878.829,298.421,854.013,291.331Z" transform="translate(-91.976 -156.072)" fill="#2f2e41"/><circle cx="31.906" cy="31.906" r="31.906" transform="translate(720.677 59.629)" fill="#ffb8b8"/><path d="M830.378,273.605s10.635,27.179,7.09,30.725,43.723,8.272,43.723,8.272,3.545-17.726-10.635-28.361c0,0-5.909-17.726-4.727-21.271S830.378,273.605,830.378,273.605Z" transform="translate(-91.976 -156.072)" fill="#ffb8b8"/><path d="M858.74,285.422a85.216,85.216,0,0,0-31.906,21.271c-14.181,15.362-21.271,20.089-21.271,20.089s-16.544,5.909-10.635,34.27c2.954,14.181.886,30.134-1.92,42.542a265.817,265.817,0,0,0-6.352,58.656V474.5S677.937,702.567,714.571,717.929s69.721,20.089,72.085,16.544S831.561,546.58,831.561,546.58s11.817,197.346,41.36,197.346,77.993-8.272,77.993-8.272L890.646,499.311s14.181-40.178-21.271-68.539l-4.728-13c19.6.01,28.566-124.07,8.272-134.716C872.92,283.059,868.193,279.514,858.74,285.422Z" transform="translate(-91.976 -156.072)" fill="#2f2e41"/><path d="M829.2,349.235l-16.544,43.723-39,81.538s-17.726,53.177-3.545,53.177,24.816-50.814,24.816-50.814l43.723-68.539,24.816-61.449Z" transform="translate(-91.976 -156.072)" fill="#ffb8b8"/><ellipse cx="20.68" cy="11.817" rx="20.68" ry="11.817" transform="translate(637.956 564.221)" fill="#2f2e41"/><ellipse cx="20.68" cy="11.817" rx="20.68" ry="11.817" transform="translate(796.306 564.221)" fill="#2f2e41"/><path d="M856.876,202.865h0a25.339,25.339,0,0,0-4.893.486,21.442,21.442,0,0,0-9.34-2.153H841.8c-16.345,0-29.595,14.79-29.595,33.035h5.477l.885-6.732,1.3,6.732h4.562a64.576,64.576,0,0,0-2.119,16.55v33.624h8.28l4.794-12.458-1.2,12.458H887.4l4.358-11.325-1.09,11.325h5.992v-26.4C896.662,227.553,878.849,202.865,856.876,202.865Z" transform="translate(-91.976 -156.072)" fill="#2f2e41"/><path d="M753.166,39.42h7.811a6.094,6.094,0,0,1,6.094,6.094V81.326a6.1,6.1,0,0,1-6.095,6.094h-7.811a6.094,6.094,0,0,1-6.094-6.094V45.515a6.094,6.094,0,0,1,6.094-6.094Z" fill="#d0cde1"/><circle cx="18" cy="18" r="18" transform="translate(739.071 78.42)" fill="#6c63ff"/><circle cx="9" cy="9" r="9" transform="translate(748.071 87.42)" fill="#d0cde1"/><circle cx="4" cy="4" r="4" transform="translate(753.071 92.42)" fill="#6c63ff"/></svg>