<svg xmlns="http://www.w3.org/2000/svg" width="563.663" height="571.744" viewBox="0 0 563.663 571.744"><g transform="translate(-7733.694 -3226.643)"><path d="M254.58,191.4v38.083a25.389,25.389,0,0,1-27.674,25.389A251.223,251.223,0,0,1,117.354,215.9a247.542,247.542,0,0,1-76.167-76.167A251.223,251.223,0,0,1,2.215,29.675,25.389,25.389,0,0,1,27.477,2H65.56A25.389,25.389,0,0,1,90.949,23.836a163,163,0,0,0,8.886,35.671,25.389,25.389,0,0,1-5.713,26.785L78,102.414a203.111,203.111,0,0,0,76.167,76.167l16.122-16.122a25.389,25.389,0,0,1,26.785-5.712,163,163,0,0,0,35.671,8.886A25.389,25.389,0,0,1,254.58,191.4Z" transform="translate(7887.649 3379.511)" stroke="#000" stroke-linecap="round" stroke-linejoin="round" stroke-width="12"/><g transform="matrix(0.995, 0.105, -0.105, 0.995, 7788.162, 3226.643)" fill="none"><path d="M256,0C397.385,0,512,114.615,512,256S397.385,512,256,512c-48.038,0-121-26-121-26L39.523,521.08,57,415S0,318.634,0,256C0,114.615,114.615,0,256,0Z" stroke="none"/><path d="M 256 22 C 126.9719848632812 22 22 126.9720153808594 22 256 C 22 302.3282775878906 60.93646240234375 378.4027404785156 75.93927001953125 403.8060913085938 L 80.00628662109375 410.6924743652344 L 67.36630249023438 487.4119262695312 L 134.8849182128906 462.6082763671875 L 142.3794555664062 465.2745666503906 C 143.074462890625 465.5218200683594 212.3832702636719 490 256 490 C 385.0280151367188 490 490 385.0280151367188 490 256 C 490 126.9720153808594 385.0280151367188 22 256 22 M 256 0 C 397.3849182128906 0 512 114.6151123046875 512 256 C 512 397.3849182128906 397.3849182128906 512 256 512 C 207.9616394042969 512 135 486 135 486 L 39.52264404296875 521.0802001953125 L 57 415 C 57 415 0 318.633544921875 0 256 C 0 114.6151123046875 114.6150817871094 0 256 0 Z" stroke="none" fill="#000"/></g></g></svg>